<svg xmlns="http://www.w3.org/2000/svg" viewBox="0 0 1200 680" role="img" aria-labelledby="title desc">
  <title id="title">Glyph Fleet workspace preview</title>
  <desc id="desc">Claude Code, Codex, Gemini CLI, and AGI open as named panes in one workspace.</desc>
  <rect width="1200" height="680" rx="22" fill="#0d0d0f"/><rect x="1" y="1" width="1198" height="678" rx="21" fill="none" stroke="#4a352b" stroke-width="2"/>
  <rect width="1200" height="58" rx="22" fill="#151416"/><path d="M0 58h1200" stroke="#2b292d"/>
  <circle cx="31" cy="29" r="7" fill="#c2562f"/><circle cx="53" cy="29" r="7" fill="#60463b"/><circle cx="75" cy="29" r="7" fill="#60463b"/>
  <text x="106" y="36" fill="#aaa4ad" font-family="monospace" font-size="18">herdr · glyph fleet</text><text x="1030" y="36" fill="#d7a27b" font-family="monospace" font-size="16">4 panes ready</text>
  <rect x="34" y="86" width="1132" height="54" rx="8" fill="#111013" stroke="#2b292d"/><text x="55" y="121" fill="#c2562f" font-family="monospace" font-size="20">$</text><text x="81" y="121" fill="#f1eef0" font-family="monospace" font-size="20">claude billing</text><text x="278" y="121" fill="#66626a" font-family="monospace" font-size="18">→ named pane + Remote Control ready</text>
  <g transform="translate(34 166)"><rect width="550" height="218" rx="12" fill="#171518" stroke="#9c5c3d"/><rect width="550" height="42" rx="12" fill="#21191a"/><text x="20" y="28" fill="#eee9eb" font-family="monospace" font-size="16" font-weight="600">Claude Code</text><text x="20" y="82" fill="#d9a078" font-family="monospace" font-size="15">billing·acme-api·claude-code</text><text x="20" y="114" fill="#86aa8b" font-family="monospace" font-size="14">remote control ready</text><text x="20" y="180" fill="#77727b" font-family="monospace" font-size="13">$ claude billing</text></g>
  <g transform="translate(616 166)"><rect width="550" height="218" rx="12" fill="#171518" stroke="#383238"/><rect width="550" height="42" rx="12" fill="#1a191e"/><text x="20" y="28" fill="#eee9eb" font-family="monospace" font-size="16" font-weight="600">Codex</text><text x="20" y="82" fill="#d9a078" font-family="monospace" font-size="15">review·acme-api·codex</text><text x="20" y="114" fill="#86aa8b" font-family="monospace" font-size="14">ready</text><text x="20" y="180" fill="#77727b" font-family="monospace" font-size="13">$ codex review</text></g>
  <g transform="translate(34 408)"><rect width="550" height="218" rx="12" fill="#171518" stroke="#383238"/><rect width="550" height="42" rx="12" fill="#1a191e"/><text x="20" y="28" fill="#eee9eb" font-family="monospace" font-size="16" font-weight="600">Gemini CLI</text><text x="20" y="82" fill="#d9a078" font-family="monospace" font-size="15">docs·website·gemini-cli</text><text x="20" y="114" fill="#86aa8b" font-family="monospace" font-size="14">ready</text><text x="20" y="180" fill="#77727b" font-family="monospace" font-size="13">$ gemini docs</text></g>
  <g transform="translate(616 408)"><rect width="550" height="218" rx="12" fill="#171518" stroke="#383238"/><rect width="550" height="42" rx="12" fill="#1a191e"/><text x="20" y="28" fill="#eee9eb" font-family="monospace" font-size="16" font-weight="600">AGI</text><text x="20" y="82" fill="#d9a078" font-family="monospace" font-size="15">tests·acme-api·agi</text><text x="20" y="114" fill="#86aa8b" font-family="monospace" font-size="14">ready</text><text x="20" y="180" fill="#77727b" font-family="monospace" font-size="13">$ agy tests</text></g>
</svg>
